<svg xmlns="http://www.w3.org/2000/svg" viewBox="0 0 289.3 289.3" fill="#f3f3f3"><path d="M144.8 0c-1.7-0.1-3.3 0.8-4.1 2.3l-30 50c-1.3 2.2-0.6 5.1 1.6 6.4 0.7 0.4 1.6 0.7 2.4 0.7h25v50.7c-15.3 2.2-27.4 14.4-29.6 29.6H59.3v-25c0-2.6-2.1-4.7-4.7-4.7 0 0-0.1 0-0.1 0 -0.8 0-1.6 0.3-2.3 0.7l-50 30c-2.2 1.3-2.9 4.2-1.6 6.4 0.4 0.7 0.9 1.2 1.6 1.6l50 30c2.2 1.3 5.1 0.6 6.4-1.6 0.4-0.7 0.7-1.6 0.7-2.4v-25h50.7c2.2 15.3 14.4 27.4 29.6 29.6v50.7h-25c-2.6 0-4.7 2.1-4.7 4.7 0 0.8 0.2 1.7 0.7 2.4l30 50c1.3 2.2 4.2 2.9 6.4 1.6 0.7-0.4 1.2-0.9 1.6-1.6l30-50c1.3-2.2 0.6-5.1-1.6-6.4 -0.7-0.4-1.6-0.7-2.4-0.7h-25v-50.7c15.3-2.2 27.4-14.4 29.6-29.6h50.7v25c0 2.6 2.1 4.7 4.7 4.7 0.8 0 1.7-0.2 2.4-0.7l50-30c2.2-1.3 2.9-4.2 1.6-6.4 -0.4-0.7-0.9-1.2-1.6-1.6l-50-30c-0.7-0.4-1.4-0.6-2.2-0.7 -2.6-0.1-4.7 1.9-4.8 4.5 0 0.1 0 0.1 0 0.2v25h-50.7c-2.2-15.3-14.4-27.4-29.6-29.6V59.3h25c2.6 0 4.7-2.1 4.7-4.7 0-0.8-0.2-1.7-0.7-2.4l-30-50C147.9 0.9 146.4 0.1 144.8 0zM144.7 13.7l21.8 36.3h-43.5L144.7 13.7zM144.8 26.1c-0.1 0-0.2 0-0.2 0 -0.8 0-1.6 0.5-2 1.2l-10 16c-0.8 1.2-0.4 2.7 0.7 3.5 1.2 0.8 2.7 0.4 3.5-0.7 0 0 0-0.1 0.1-0.1l10-16c0.7-1.2 0.4-2.7-0.7-3.5C145.7 26.3 145.2 26.2 144.8 26.1zM144.7 119.7c13.9 0 25 11.1 25 25s-11.1 25-25 25 -25-11.1-25-25S130.8 119.7 144.7 119.7zM50 122.9v43.5l-36.3-21.8L50 122.9zM239.3 122.9l36.3 21.8 -36.3 21.8V122.9zM144.7 127.2c-9.6 0-17.5 7.9-17.5 17.5 0 1.4 1.1 2.5 2.5 2.5 1.4 0 2.5-1.1 2.5-2.5 0 0 0 0 0-0.1 0-6.9 5.6-12.5 12.5-12.5 1.4 0 2.5-1.1 2.5-2.5 0-1.4-1.1-2.5-2.5-2.5C144.7 127.2 144.7 127.2 144.7 127.2zM260.7 142.1c-0.5 0-0.9 0.1-1.3 0.4l-16 10c-1.2 0.7-1.6 2.2-0.9 3.4 0.7 1.2 2.2 1.6 3.4 0.9 0 0 0.1 0 0.1-0.1l16-10c1.2-0.7 1.6-2.3 0.8-3.4C262.4 142.6 261.6 142.1 260.7 142.1zM28.6 142.1c-1.4 0-2.5 1.2-2.4 2.6 0 0.8 0.5 1.6 1.2 2.1l16 10c1.2 0.8 2.7 0.4 3.5-0.7 0.8-1.2 0.4-2.7-0.7-3.5 0 0-0.1 0-0.1-0.1l-16-10C29.6 142.3 29.1 142.1 28.6 142.1zM122.9 239.3h43.5l-21.8 36.3L122.9 239.3zM154.8 242.1c-0.1 0-0.2 0-0.2 0 -0.8 0-1.6 0.5-2 1.2l-10 16c-0.8 1.2-0.4 2.7 0.7 3.5 1.2 0.8 2.7 0.4 3.5-0.7 0 0 0-0.1 0.1-0.1l10-16c0.7-1.2 0.4-2.7-0.7-3.5C155.7 242.3 155.2 242.2 154.8 242.1z"/></svg>