<svg xmlns="http://www.w3.org/2000/svg" width="365" height="365" viewBox="0 0 365.1 365.1" fill="#f3f3f3"><path d="M45 3.3c-3.7 2.4-8.6 3.1-11.6 6.1 -2.4 1.8-2.4 5.5 0 7.3 2.4 1.2 5.5 0 8-0.6 1.8-0.6 2.4-1.8 2.4-3.7 1.8-1.2 3.7-2.4 4.9-4.3C51.1 5.7 48 0.8 45 3.3z"/><path d="M20.5 39.4c-3.7 3.1-7.3 6.7-10.4 10.4 -3.1 3.7-6.7 8.6-6.7 12.9 0 2.4 3.1 3.7 4.3 1.8 3.1-3.1 3.7-8 6.1-11.6 2.4-4.3 5.5-7.3 9.2-11C24.2 40 21.7 38.2 20.5 39.4z"/><path d="M5.8 94.5C4.6 89.6 4 84.1 4 78.5c0-1.8-3.1-1.8-3.1 0 0 7.3-3.7 22 3.7 26.9 1.2 1.2 3.1-0.6 3.1-1.8C7.7 100.6 6.4 97.5 5.8 94.5z"/><path d="M40.1 117.7c-9.8 1.2-18.4 3.1-27.5-1.8 -1.2-0.6-1.8 0.6-0.6 1.2 9.2 6.7 19.6 9.8 30 4.3C44.4 120.2 41.9 117.1 40.1 117.7z"/><path d="M84.2 85.9c-4.9 1.8-8.6 5.5-12.9 8.6 -4.9 3.7-9.2 7.3-13.5 11.6 -1.2 1.2 0.6 3.7 2.4 2.4 3.7-3.7 8-6.1 12.2-9.2 4.3-3.1 9.8-5.5 13.5-9.2C87.8 88.3 86.6 84.7 84.2 85.9z"/><path d="M125.2 41.8c-11 4.3-21.4 14.7-29.4 23.3 -1.2 1.8 0.6 3.7 2.4 2.4 4.9-4.3 10.4-8.6 15.9-12.2 4.3-3.1 9.2-5.5 12.9-9.2C128.8 43.7 127 41.2 125.2 41.8z"/><path d="M179.6 19.2c-11-0.6-22 3.7-31.8 7.3 -1.8 0.6-1.2 3.1 0.6 3.1 10.4-3.1 20.8-4.3 31.2-4.9C182.7 24.1 182.7 19.2 179.6 19.2z"/><path d="M220.6 39.4c-3.1-3.7-7.3-7.3-11-10.4 -3.1-2.4-6.7 1.2-4.3 4.3 3.1 3.1 6.1 6.7 9.2 10.4 3.1 3.7 6.1 9.2 10.4 12.2 1.8 1.2 4.3-0.6 3.7-3.1C228.6 47.9 224.3 43.1 220.6 39.4z"/><path d="M232.3 72.4c0-2.4-4.3-2.4-4.3 0 -0.6 6.1-1.8 11.6-3.1 17.7 -1.2 5.5-4.3 11-4.3 17.1 0 3.1 4.3 4.3 5.5 1.2C231.6 98.1 232.9 83.4 232.3 72.4z"/><path d="M205.9 134.2c-3.1 4.3-6.1 8.6-9.2 12.9 -2.4 4.3-6.7 8.6-7.3 13.5 0 2.4 2.4 3.1 4.3 2.4 4.3-1.8 6.1-7.3 8-11 3.1-4.9 5.5-10.4 8.6-15.3C211.4 133.6 207.8 131.8 205.9 134.2z"/><path d="M175.3 178.9c-5.5 4.9-9.8 9.8-13.5 15.3 -3.7 5.5-8.6 13.5-7.3 20.2 0.6 3.1 3.7 3.7 5.5 1.2 3.1-4.3 3.7-10.4 5.5-15.3 2.4-7.3 6.7-14.1 11.6-20.2C178.4 179.5 176.6 177.7 175.3 178.9z"/><path d="M140.5 238.9c-5.5 4.9-9.8 10.4-13.5 17.1 -3.7 6.7-8 15.3-6.7 22.6 0.6 2.4 4.3 2.4 4.9 0.6 3.7-5.5 3.7-12.9 6.1-19 2.4-6.7 6.7-13.5 11.6-19.6C144.1 239.5 142.3 237.1 140.5 238.9z"/><path d="M139.8 332.5c-4.3-2.4-8-4.3-11-8 -3.1-4.9-4.3-12.2-4.3-17.7 0-1.8-3.1-1.8-3.1 0 -1.2 11.6 1.2 31.8 17.1 31.2C141.1 337.4 142.3 333.8 139.8 332.5z"/><path d="M204.7 353.9c-6.7-0.6-13.5 0.6-20.2 0.6 -8.6-0.6-16.5-3.1-23.3-8 -1.2-0.6-1.8 1.2-1.2 1.8 12.9 9.8 30.6 18.4 46.5 11.6C209.6 358.2 207.8 353.9 204.7 353.9z"/><path d="M256.7 312.3c-4.3 2.4-8 6.1-12.9 9.2 -4.3 2.4-9.2 3.7-14.1 4.3 -3.1 0.6-3.1 4.9 0 4.9 11 0.6 25.1-3.1 31.2-13.5C263.5 314.2 259.8 311.1 256.7 312.3z"/><path d="M281.8 275.6c-8 8-16.5 16.5-22 26.3 -1.8 3.1 2.4 4.9 4.3 2.4 6.7-8.6 17.7-14.7 22.6-25.1C287.3 276.2 284.3 273.2 281.8 275.6z"/><path d="M327.7 276.2c-1.8-3.7-6.7-6.1-10.4-8 -4.3-1.8-9.2-2.4-14.1-2.4 -3.1 0-3.1 4.3 0 4.3 4.3 0 8 1.2 11.6 3.1 3.1 1.8 5.5 4.9 8.6 6.7C325.9 281.7 329 278.7 327.7 276.2z"/><path d="M364.4 300.1c-8.6-14.1-14.1-30-21.4-44.7 -3.7-6.7-13.5-0.6-10.4 6.1 5.5 12.2 10.4 25.1 17.7 36.7 -5.5 0.6-11 1.2-17.1 1.8 -2.4 0.6-6.7 0.6-8.6 3.1l-0.6 0.6c0 0-0.6 0-0.6 0.6 -1.2 1.2 0 3.7 1.2 3.7l0 0c0.6 0.6 1.2 0.6 2.4 0.6 3.1 0.6 6.1 0 9.8 0 8-0.6 15.3-1.2 23.3-0.6C363.8 308.7 366.3 303.8 364.4 300.1z"/></svg>