<svg xmlns="http://www.w3.org/2000/svg" width="512" height="512" viewBox="0 0 59.3 59.3" fill="#f3f3f3"><path d="M28.8 39.6c2.9 0.3 5.1 1.5 5.1 4.6 0 1.3-0.6 4.5 1.2 5.1 3 1 7.4-4.6 9.3-6.2 4.6-3.9 9.1-7.7 13.7-11.6 2.9-2.4-0.5-4.3-2.4-5.9 -5-4.2-10-8.5-15.1-12.7 -1.8-1.5-5.3-5-6.6-1.2 -0.1 0.1-0.1 0.1-0.1 0.2 0 0.1 0 0.1 0 0.2 0 2.1 0.2 4.3-0.5 6.3 -0.7 2.1-3.1 0.9-4.5 1.3 -1.8 0.5-2.1 1.5-2.1 3.2 0 3.2 0 6.5 0 9.7 0 2.1-0.4 4.3 0.4 6.2C27.5 39.3 28.4 39.5 28.8 39.6zM28.6 37.2c0.2 0.2 0.4 0.4 0.6 0.6 0.3 0.1 0.5 0.3 0.8 0.4 0.1 0.1 0.2 0.1 0.3 0.2C29.4 38.1 28.9 37.9 28.6 37.2zM36.8 48.1c-0.3 0.2-0.5 0.2-0.7 0 0.1 0 0.2 0.1 0.2 0.1 0.3 0 0.1-0.2-0.4-0.5 0 0-0.1 0-0.1-0.1 -0.3-0.8-0.4-2.1-0.4-3.2 0.2 0.2 0.3 0.4 0.5 0.5 0.6 0.4 1.2 0.8 1.8 1.1 0.3 0.2 0.7 0.3 1 0.3C38.1 47 37.4 47.6 36.8 48.1zM40.2 45.2c-0.3 0.2-0.5 0.4-0.8 0.7 0-0.2-0.2-0.5-0.5-0.7 -1-0.6-1.9-1.3-2.9-1.9 -0.2-0.1-0.4-0.3-0.6-0.4 -0.1-0.8-0.2-1.5-0.5-2.2 0.3 0.3 0.5 0.5 0.8 0.7 1.5 0.9 3.1 1.8 4.6 2.6 0.3 0.2 0.8 0.2 1.2 0.1C41.1 44.5 40.6 44.9 40.2 45.2zM53.7 33.9c0-0.2-0.1-0.4-0.3-0.5 -0.2-0.1-0.5-0.3-0.7-0.4 -4.9-3.2-9.9-6.5-14.8-9.7 -0.5-0.3-0.5-0.4 0.1-0.2 0.8 0.3 1.5 0.7 2.3 1.1 4.6 2.7 9.1 5.5 13.5 8.5 0.4 0.3 0.8 0.4 1.1 0.3C54.5 33.3 54.1 33.6 53.7 33.9zM46.9 20.2c0.3 0.1 0.5 0.2 0.8 0.3 0 0 0.1 0 0.1 0 0.4 0.4 0.9 0.7 1.3 1.1 -0.2-0.1-0.4-0.2-0.6-0.3 -0.5-0.3-1.1-0.6-1.6-0.9C46.2 20.1 46.3 20 46.9 20.2zM35.4 11.7c0.1-0.3 0.3-0.3 0.7-0.2 0.2 0.1 0.3 0.2 0.6 0.3 0.4 0.2 0.9 0.4 1.3 0.7 0.6 0.4 1.2 0.8 1.8 1.3 -1.1-0.6-2.2-1.2-3.4-1.7 -0.4-0.2-0.7-0.3-1-0.2C35.4 11.8 35.4 11.8 35.4 11.7zM35.4 13.2c0.2 0.1 0.4 0.3 0.6 0.4 1.8 0.9 3.5 1.8 5.3 2.8 0.5 0.3 0.5 0.4-0.1 0.1 -1.4-0.5-2.9-1.1-4.3-1.7 -0.6-0.2-1.2-0.6-1.5-0.7 0 0-0.1 0-0.1 0C35.4 13.8 35.4 13.5 35.4 13.2zM35.3 15.5c0.2 0.3 0.4 0.5 0.7 0.7 0.6 0.3 1.3 0.7 1.9 1 6.1 3.6 12.2 7.1 18.4 10.6 0 0 0.1 0.1 0.1 0.1 2.1 1.7 0.7 3.3-1 4.7 0.1-0.2 0.1-0.4-0.1-0.5 -0.1-0.1-0.3-0.2-0.4-0.3 -4.8-3.5-9.7-6.9-15-9.5 -1.5-0.9-3-1.8-4.5-2.6 -0.5-0.3-1.2-0.1-1.7 0.3 -0.4 0.4-0.9 0.6-1.4 0.6h-1C34.2 20 35.1 18.3 35.3 15.5zM28.7 21.4c0.1 0.2 0.3 0.5 0.6 0.6 4.8 2.5 9.7 5 14.4 7.6 1.5 0.8 3 1.7 4.4 2.5 1.3 0.7 2.5 1.5 3.8 2.2 0.2 0.1 0.3 0.2 0.5 0.3 0.1 0.1 0.2 0.1 0.4 0.1 -0.6 0.5-1.3 1.1-1.9 1.6 0-0.3-0.1-0.6-0.4-0.7 -7.1-4.3-14.2-8.6-21.3-13 -0.3-0.2-0.5-0.2-0.7-0.1C28.5 22 28.6 21.6 28.7 21.4zM48.8 36.2c-2.9-1.6-5.7-3.3-8.5-5 -3.2-1.9-6.3-4-9.5-6 -0.5-0.3-0.5-0.3 0 0 6 3.7 12 7.3 18 11C49.3 36.5 49.3 36.5 48.8 36.2zM28.3 23.5c0 0.1 0.1 0.2 0.1 0.3 0.1 0.1 0.1 0.1 0 0 -0.1 0-0.1 0.1-0.2 0.2C28.3 23.8 28.3 23.6 28.3 23.5zM28.2 24.5c0 0.5 0.4 1 0.9 1.3 4.7 2.8 9.2 5.9 14 8.7 1.7 1 3.3 2 5 2.9 0.3 0.2 0.7 0.2 1.1 0.1 -0.7 0.6-1.3 1.1-2 1.7 0-0.2-0.2-0.5-0.5-0.7 -1.4-0.8-2.9-1.7-4.3-2.5 -4.5-2.8-9-5.8-13.3-8.9 -0.5-0.4-0.9-0.3-0.9 0.2 0 0.5 0.2 1 0.4 1.1 0.2 0.1 0.2 0.2 0 0.1 -0.2-0.1-0.4 0.2-0.4 0.7 0 0.5 0.4 1.1 1 1.4 4.5 2.3 8.9 4.7 13.2 7.2 1 0.6 2 1.2 3 1.8 0.3 0.2 0.7 0.3 1 0.2 -1.2 1-2.4 2-3.6 3 0-0.3-0.1-0.6-0.4-0.8 -4.4-2.5-8.9-5-13.3-7.6 -0.3-0.2-0.6-0.2-0.8 0.1C28.3 33.1 28 28.1 28.2 24.5z"/><path d="M17.5 37.1c0 3.5 7.4 3.4 8.2 0.4 0 0 0 0 0-0.1 0 0 0 0 0 0 0-5.1 0-10.2 0-15.3 0-3.5-7.3-3.4-8.2-0.4 -0.5 1.7 0 4.1 0 5.8C17.5 30.8 17.5 33.9 17.5 37.1zM19.2 38.1c0.1 0.1 0.2 0.1 0.3 0.2 0.6 0.3 1.6 0.6 2.3 0.6h0.6C21.2 39 19.8 38.7 19.2 38.1zM18.9 21.5c0-1.5 3.9-1.5 5-0.2 -0.2-0.1-0.4-0.1-0.6-0.1 0 0 0 0-0.1 0 -0.1 0 0.1 0.1 0.2 0.1 0.1 0 0.2 0.1 0.3 0.2 0.1 0.1 0.2 0.1 0.3 0.2 0 0.1 0.1 0.2 0.1 0.3 0 0.2 0 0.3 0 0.5 -0.2-0.2-0.3-0.4-0.5-0.5 -0.1-0.1-0.2-0.1-0.2-0.2 -0.6-0.4-1.6-0.7-2.3-0.7h-1.4c-0.3 0-0.6 0.1-0.8 0.2 0 0-0.1 0.1-0.1 0.1C18.9 21.5 18.9 21.5 18.9 21.5zM18.9 22c0.1 0.2 0.4 0.5 0.7 0.7 1.3 0.7 2.7 1.4 4 2.1 0.2 0.1 0.4 0.1 0.6 0.1 0 0.6 0 1.2 0 1.9 -0.2-0.2-0.3-0.3-0.5-0.5 -1.4-0.9-2.8-1.7-4.2-2.6 -0.2-0.1-0.4-0.2-0.5-0.2C18.9 23 18.9 22.5 18.9 22zM18.9 24.9c0.2 0.2 0.3 0.3 0.5 0.5 1.4 0.9 2.8 1.7 4.2 2.6 0.2 0.1 0.4 0.2 0.5 0.2 0 0.1 0 0.2 0 0.3 -0.1-0.1-0.2-0.1-0.4-0.2 -1.5-0.9-2.9-1.8-4.4-2.8 -0.2-0.1-0.4-0.2-0.5-0.2C18.9 25.2 18.9 25 18.9 24.9zM18.9 26.6c0.2 0.2 0.3 0.3 0.5 0.5 1.4 0.9 2.8 1.8 4.2 2.7 0.2 0.1 0.4 0.2 0.5 0.2 0 0.7 0 1.4 0 2.2 -0.2-0.2-0.3-0.3-0.5-0.5 -1.4-0.9-2.8-1.9-4.2-2.8 -0.2-0.1-0.4-0.2-0.5-0.2C18.9 28 18.9 27.3 18.9 26.6zM18.9 33c0-0.8 0-1.6 0-2.4 0.2 0.2 0.4 0.4 0.6 0.5 1.4 0.8 2.8 1.5 4.2 2.3 0.2 0.1 0.4 0.2 0.6 0.2 0 1.4 0 2.7 0 4.1 0 0.1-0.1 0.2-0.2 0.3 -0.1-0.2-0.3-0.4-0.6-0.5 -1.3-0.7-2.6-1.5-4-2.2 -0.2-0.1-0.4-0.2-0.6-0.1C18.9 34.4 18.9 33.7 18.9 33z"/><path d="M9 37.1c0 3.5 7.2 3.4 8 0.4 0 0 0 0 0 0 0 0 0 0 0 0 0-5.1 0-10.2 0-15.3 0-3.5-7.2-3.4-8-0.4 -0.5 1.7 0 4.1 0 5.8C9 30.8 9 33.9 9 37.1zM10.8 38.2c0 0 0 0 0 0 0.6 0.3 1.6 0.6 2.3 0.6h0.4C12.5 38.9 11.4 38.7 10.8 38.2zM15.2 21.3c-0.1 0-0.3-0.1-0.4-0.1 0 0 0 0-0.1 0 -0.1 0 0.1 0.1 0.2 0.1 0.1 0 0.2 0.1 0.3 0.2 0.1 0 0.1 0.1 0.2 0.1 0.1 0.1 0.1 0.3 0.1 0.4 0 0.1 0 0.3 0 0.4 -0.1-0.1-0.3-0.3-0.4-0.4 -0.1-0.1-0.2-0.1-0.2-0.2 -0.6-0.4-1.6-0.7-2.3-0.7h-1.4c-0.3 0-0.5 0.1-0.7 0.2C10.6 20 14.1 20.1 15.2 21.3zM10.4 22.2c0.1 0.2 0.3 0.4 0.6 0.5 1.3 0.7 2.7 1.4 4 2.1 0.2 0.1 0.3 0.1 0.5 0.1 0 0.6 0 1.2 0 1.7 -0.1-0.1-0.3-0.2-0.4-0.3 -1.4-0.9-2.8-1.7-4.2-2.6 -0.2-0.1-0.3-0.2-0.4-0.2C10.4 23.1 10.4 22.6 10.4 22.2zM10.4 25.1c0.1 0.1 0.3 0.2 0.4 0.3 1.4 0.9 2.8 1.7 4.2 2.6 0.2 0.1 0.3 0.2 0.4 0.2 0 0.1 0 0.2 0 0.3 -0.1-0.1-0.2-0.1-0.3-0.2 -1.5-0.9-2.9-1.8-4.4-2.8 -0.2-0.1-0.3-0.2-0.4-0.2C10.4 25.2 10.4 25.1 10.4 25.1zM10.4 26.8c0.1 0.1 0.3 0.2 0.4 0.3 1.4 0.9 2.8 1.8 4.2 2.7 0.2 0.1 0.3 0.2 0.4 0.2 0 0.7 0 1.4 0 2.1 -0.1-0.1-0.3-0.3-0.4-0.3 -1.4-0.9-2.8-1.9-4.2-2.8 -0.1-0.1-0.3-0.2-0.4-0.2C10.4 28.1 10.4 27.4 10.4 26.8zM10.4 33c0-0.8 0-1.5 0-2.3 0.1 0.2 0.3 0.3 0.5 0.4 1.4 0.8 2.8 1.5 4.2 2.3 0.2 0.1 0.3 0.1 0.5 0.2 0 1.4 0 2.7 0 4.1 0 0.1-0.1 0.2-0.1 0.2 -0.1-0.2-0.3-0.3-0.5-0.4 -1.3-0.7-2.6-1.5-4-2.2 -0.2-0.1-0.3-0.1-0.5-0.1C10.4 34.4 10.4 33.7 10.4 33z"/><path d="M0.2 37.1c0 3.5 7.4 3.4 8.2 0.4 0 0 0 0 0-0.1 0 0 0 0 0 0 0-5.1 0-10.2 0-15.3 0-3.5-7.4-3.4-8.2-0.4C-0.3 23.4 0.2 25.9 0.2 27.6 0.2 30.8 0.2 33.9 0.2 37.1zM2 38.1c0.1 0 0.1 0.1 0.2 0.1 0.6 0.3 1.6 0.6 2.2 0.6C3.5 38.9 2.5 38.6 2 38.1zM1.7 21.5c0-1.5 4.1-1.5 5.1-0.1 -0.2-0.1-0.4-0.2-0.6-0.2 0 0 0 0-0.1 0 -0.1 0 0.1 0.1 0.2 0.1 0.1 0 0.2 0.1 0.3 0.2 0.1 0.1 0.2 0.1 0.3 0.2 0 0.1 0.1 0.2 0.1 0.3 0 0.2 0 0.4 0 0.6 -0.2-0.2-0.3-0.4-0.5-0.5 -0.1-0.1-0.2-0.1-0.2-0.2 -0.6-0.4-1.6-0.7-2.3-0.7H2.5c-0.3 0-0.6 0.1-0.8 0.2 0 0-0.1 0.1-0.1 0.1C1.7 21.5 1.7 21.5 1.7 21.5zM1.7 22c0.1 0.3 0.4 0.5 0.7 0.7 1.3 0.7 2.7 1.4 4 2.1 0.2 0.1 0.4 0.1 0.6 0.1 0 0.6 0 1.2 0 1.9 -0.2-0.2-0.3-0.3-0.5-0.5 -1.4-0.9-2.8-1.7-4.2-2.6 -0.2-0.1-0.4-0.2-0.6-0.2C1.7 23 1.7 22.5 1.7 22zM1.7 24.9c0.2 0.2 0.3 0.4 0.6 0.5 1.4 0.9 2.8 1.7 4.2 2.6 0.2 0.1 0.4 0.2 0.5 0.2 0 0.1 0 0.2 0 0.3 -0.1-0.1-0.2-0.1-0.4-0.2 -1.5-0.9-2.9-1.8-4.4-2.8 -0.2-0.1-0.4-0.2-0.5-0.2C1.7 25.2 1.7 25.1 1.7 24.9zM1.7 26.6c0.2 0.2 0.3 0.4 0.5 0.5 1.4 0.9 2.8 1.8 4.2 2.7 0.2 0.1 0.4 0.2 0.5 0.2 0 0.7 0 1.4 0 2.2 -0.2-0.2-0.3-0.3-0.5-0.5 -1.4-0.9-2.8-1.9-4.2-2.8 -0.2-0.1-0.4-0.2-0.5-0.2C1.7 28 1.7 27.3 1.7 26.6zM1.7 33c0-0.8 0-1.6 0-2.4 0.2 0.2 0.4 0.4 0.6 0.5 1.4 0.8 2.8 1.5 4.2 2.3 0.2 0.1 0.4 0.2 0.6 0.2 0 1.3 0 2.7 0 4 0 0.1-0.1 0.2-0.2 0.3 -0.1-0.2-0.3-0.4-0.6-0.5 -1.3-0.7-2.6-1.5-4-2.2 -0.2-0.1-0.4-0.2-0.6-0.1C1.7 34.5 1.7 33.8 1.7 33z"/></svg>